<?xml version="1.0" standalone="no"?>
<!DOCTYPE svg PUBLIC "-//W3C//DTD SVG 20010904//EN"
 "http://www.w3.org/TR/2001/REC-SVG-20010904/DTD/svg10.dtd">
<svg version="1.0" xmlns="http://www.w3.org/2000/svg"
 width="724.000000pt" height="724.000000pt" viewBox="0 0 724.000000 724.000000"
 preserveAspectRatio="xMidYMid meet">
<metadata>
Created by potrace 1.14, written by Peter Selinger 2001-2017
</metadata>
<g transform="translate(0.000000,724.000000) scale(0.100000,-0.100000)"
fill="#000000" stroke="none">
<path d="M3310 5890 c-489 -43 -985 -188 -1352 -396 -562 -318 -906 -766 -969
-1261 l-12 -93 -491 0 c-480 0 -490 0 -471 -19 29 -27 3595 -2782 3609 -2787
6 -2 301 222 656 497 355 276 1167 907 1804 1403 l1159 901 -486 3 -486 2 -6
48 c-13 105 -38 222 -65 304 -212 634 -915 1148 -1820 1333 -240 49 -406 66
-695 70 -148 2 -317 0 -375 -5z m260 -114 l0 -34 -62 -6 c-35 -3 -99 -8 -143
-11 -75 -5 -78 -5 -55 9 31 20 143 55 207 66 26 4 49 8 51 9 1 0 2 -14 2 -33z
m242 8 c31 -8 76 -23 100 -34 l43 -20 -40 5 c-22 2 -84 5 -137 5 l-98 0 0 34
c0 34 0 35 38 29 20 -3 63 -11 94 -19z m-685 -43 c-41 -27 -77 -54 -81 -59 -3
-6 -50 -25 -104 -42 -191 -63 -354 -167 -441 -282 -40 -54 -101 -172 -101
-197 0 -19 -39 -7 -142 44 -108 54 -182 103 -231 153 l-39 40 139 70 c322 164
572 240 1033 315 14 2 29 5 34 6 5 0 -25 -21 -67 -48z m1188 3 c301 -61 519
-135 783 -266 l184 -90 -34 -35 c-47 -49 -152 -117 -255 -165 -78 -36 -309
-118 -332 -118 -5 0 -14 13 -19 29 -9 26 -7 32 23 61 38 37 65 104 65 160 0
81 -94 201 -205 263 -66 37 -158 73 -253 97 -59 15 -101 34 -140 62 l-57 40
60 -7 c33 -4 114 -18 180 -31z m-745 -258 l0 -103 -71 -7 c-40 -4 -101 -17
-138 -28 -111 -34 -351 -168 -261 -145 131 32 314 46 424 31 l46 -7 0 -140 0
-140 -157 6 c-87 4 -214 13 -283 22 -148 18 -401 64 -414 75 -23 22 181 356
239 391 102 63 415 142 588 148 l27 1 0 -104z m380 78 c124 -21 274 -69 327
-105 88 -61 110 -131 55 -180 -86 -77 -229 -65 -529 42 l-123 44 0 114 0 114
88 -7 c48 -3 130 -13 182 -22z m-1895 -361 c67 -45 195 -110 268 -138 46 -17
47 -19 47 -59 0 -85 51 -235 96 -287 12 -13 11 -29 -6 -107 -24 -110 -50 -322
-50 -409 l0 -63 -650 0 -650 0 0 39 c0 57 26 183 56 276 102 309 334 602 663
837 l66 47 50 -48 c28 -27 77 -66 110 -88z m3423 45 c274 -203 498 -491 596
-766 29 -82 66 -252 66 -306 l0 -36 -645 0 -645 0 0 53 c0 58 -27 302 -40 360
-8 37 -8 38 46 73 75 50 149 134 172 197 11 28 19 53 17 55 -1 1 -29 -15 -61
-37 -46 -30 -192 -101 -209 -101 -5 0 -77 232 -73 234 2 1 46 16 98 33 206 67
383 158 503 260 34 29 66 52 70 53 5 0 52 -32 105 -72z m-1622 -113 c205 -70
314 -89 459 -81 61 3 135 12 167 20 55 13 56 12 66 -10 10 -22 8 -23 -101 -43
-242 -45 -482 -71 -664 -71 l-103 0 0 120 c0 66 4 120 8 120 5 0 80 -25 168
-55z m-1039 -215 c214 -42 545 -79 716 -80 l37 0 0 -142 0 -141 -148 6 c-346
15 -616 94 -748 219 l-52 49 20 60 c11 32 22 59 24 59 2 0 70 -13 151 -30z
m1818 -90 c21 -66 36 -122 34 -124 -2 -2 -60 -17 -129 -34 -227 -55 -489 -93
-737 -108 l-123 -7 0 140 0 140 143 7 c259 13 542 49 707 90 30 8 58 14 61 15
3 1 23 -53 44 -119z m-2019 -257 c57 -42 200 -102 318 -133 142 -36 293 -57
489 -66 l147 -7 0 -114 0 -113 -531 0 -532 0 7 98 c6 88 25 236 42 334 7 40 8
40 60 1z m2113 -188 c5 -49 13 -125 16 -167 l7 -78 -536 0 -536 0 0 115 c0
135 -18 121 170 130 267 13 561 61 745 123 l110 37 7 -35 c3 -19 11 -75 17
-125z"/>
</g>
</svg>
